<svg aria-hidden="true" style="position: absolute; width: 0; height: 0; overflow: hidden;" version="1.1" xmlns="http://www.w3.org/2000/svg" xmlns:xlink="http://www.w3.org/1999/xlink">
<defs>
<symbol id="icon-burger-menu" viewBox="0 0 55 32">
<path d="M1.306 0h52.245v5.224h-52.245v-5.224zM14.367 13.061h39.184v5.224h-39.184v-5.224zM30.694 26.122h22.857v5.224h-22.857v-5.224z"></path>
</symbol>
<symbol id="icon-modal-x" viewBox="0 0 32 32">
<path fill="none" stroke="#fff" style="stroke: var(--color2, #fff)" stroke-linejoin="round" stroke-linecap="round" stroke-miterlimit="4" stroke-width="2.4" d="M24 8l-16 16"></path>
<path fill="none" stroke="#fff" style="stroke: var(--color2, #fff)" stroke-linejoin="round" stroke-linecap="round" stroke-miterlimit="4" stroke-width="2.4" d="M8 8l16 16"></path>
</symbol>
<symbol id="icon-choose-1" viewBox="0 0 32 32">
<path fill="#00a0c1" style="fill: var(--color1, #00a0c1)" d="M13.657 21.752l-5.657-5.659 1.885-1.885 3.772 3.771 7.541-7.543 1.887 1.887-9.428 9.429z"></path>
<path fill="#00a0c1" style="fill: var(--color1, #00a0c1)" d="M1.333 16c0 8.1 6.567 14.667 14.667 14.667s14.667-6.567 14.667-14.667c0-8.1-6.567-14.667-14.667-14.667s-14.667 6.567-14.667 14.667zM16 28c-1.576 0-3.136-0.31-4.592-0.913s-2.779-1.487-3.893-2.601c-1.114-1.114-1.998-2.437-2.601-3.893s-0.913-3.016-0.913-4.592 0.31-3.136 0.913-4.592c0.603-1.456 1.487-2.779 2.601-3.893s2.437-1.998 3.893-2.601c1.456-0.603 3.016-0.913 4.592-0.913 3.183 0 6.235 1.264 8.485 3.515s3.515 5.303 3.515 8.485c0 3.183-1.264 6.235-3.515 8.485s-5.303 3.515-8.485 3.515z"></path>
</symbol>
<symbol id="icon-choose-2" viewBox="0 0 33 32">
<path fill="#00a0c1" style="fill: var(--color1, #00a0c1)" d="M16.56 15.201c2.869 0 5.101-2.33 5.101-5.19s-2.338-5.084-5.208-5.084c-2.869 0-5.101 2.33-5.101 5.084 0 2.86 2.338 5.19 5.208 5.19zM16.454 7.046c0.106 0 0.106 0 0 0 1.7 0 3.082 1.377 3.082 3.072s-1.382 2.966-3.082 2.966c-1.7 0-2.976-1.377-2.976-2.966 0-1.695 1.382-3.072 2.976-3.072z"></path>
<path fill="#00a0c1" style="fill: var(--color1, #00a0c1)" d="M32.289 14.566c-2.019-1.801-4.676-2.754-7.439-2.648h-0.85c-0.213 0.847-0.531 1.589-0.957 2.224 0.638-0.106 1.169-0.106 1.807-0.106 2.019-0.106 4.039 0.53 5.633 1.695v7.626h2.126v-8.474l-0.319-0.318z"></path>
<path fill="#00a0c1" style="fill: var(--color1, #00a0c1)" d="M22.406 5.139c0.531-1.271 2.019-1.907 3.401-1.377 1.275 0.53 1.913 2.012 1.382 3.389-0.425 0.953-1.382 1.589-2.338 1.589-0.213 0-0.531 0-0.744-0.106 0.106 0.53 0.106 1.059 0.106 1.483v0.636c0.213 0 0.425 0.106 0.638 0.106 2.657 0 4.782-2.118 4.782-4.66 0-2.648-2.126-4.766-4.676-4.766-1.7 0-3.188 0.847-4.038 2.33 0.531 0.318 1.063 0.741 1.488 1.377z"></path>
<path fill="#00a0c1" style="fill: var(--color1, #00a0c1)" d="M10.29 14.248c-0.425-0.635-0.744-1.377-0.956-2.224h-0.85c-2.763-0.106-5.42 0.847-7.439 2.542l-0.319 0.318v8.474h2.126v-7.626c1.7-1.165 3.613-1.801 5.633-1.695 0.638 0 1.275 0.106 1.807 0.212z"></path>
<path fill="#00a0c1" style="fill: var(--color1, #00a0c1)" d="M8.483 10.753c0.213 0 0.425 0 0.638-0.106v-0.636c0-0.53 0-1.059 0.106-1.483-0.213 0.106-0.531 0.106-0.744 0.106-1.382 0-2.551-1.165-2.551-2.542s1.169-2.542 2.551-2.542c1.063 0 2.019 0.636 2.444 1.589 0.425-0.53 1.063-1.059 1.594-1.483-1.382-2.224-4.251-2.966-6.483-1.589s-2.976 4.237-1.594 6.461c0.85 1.377 2.338 2.224 4.038 2.224z"></path>
<path fill="#00a0c1" style="fill: var(--color1, #00a0c1)" d="M25.275 20.921l-0.213-0.318c-2.126-2.33-5.101-3.707-8.29-3.601-3.188-0.106-6.27 1.271-8.396 3.601l-0.213 0.318v8.050c0 0.953 0.744 1.801 1.807 1.801h13.603c0.956 0 1.807-0.847 1.807-1.801v-8.050h-0.106zM23.15 28.653h-12.859v-6.991c1.7-1.695 4.039-2.542 6.483-2.542 2.338-0.106 4.676 0.847 6.377 2.542v6.991z"></path>
</symbol>
<symbol id="icon-choose-3" viewBox="0 0 57 32">
<path fill="#00a0c1" style="fill: var(--color1, #00a0c1)" d="M51.141 14.557c-0.682 0.005-1.358 0.135-1.994 0.384l-6.803-5.671c0.167-0.618 0.287-1.26 0.287-1.936 0-4.004-3.161-7.222-7.093-7.222s-7.093 3.218-7.093 7.222c0 1.144 0.284 2.21 0.743 3.169l-8.253 9.932c-0.33-0.063-0.665-0.097-1.001-0.101-0.508 0-0.987 0.087-1.453 0.214l-7.271-7.404c0.128-0.471 0.213-0.959 0.213-1.476 0-3.201-2.531-5.778-5.674-5.778s-5.674 2.577-5.674 5.778c0 3.201 2.531 5.778 5.674 5.778 0.508 0 0.987-0.087 1.453-0.214l7.271 7.404c-0.136 0.48-0.208 0.977-0.213 1.476 0 3.201 2.531 5.778 5.674 5.778s5.674-2.577 5.674-5.778c0-0.685-0.136-1.329-0.349-1.939l8.264-9.943c0.644 0.191 1.311 0.326 2.014 0.326 1.12-0.006 2.222-0.285 3.214-0.812l6.806 5.671c-0.053 0.303-0.084 0.611-0.091 0.919 0 3.201 2.531 5.778 5.674 5.778s5.674-2.577 5.674-5.778-2.531-5.778-5.674-5.778z"></path>
</symbol>
<symbol id="icon-choose-4" viewBox="0 0 32 32">
<path fill="none" stroke="#00a0c1" style="stroke: var(--color1, #00a0c1)" stroke-linejoin="round" stroke-linecap="round" stroke-miterlimit="4" stroke-width="2" d="M20.667 29.333v-0.667c0-1.473 1.243-2.667 2.563-3.319 1.284-0.635 2.363-1.68 2.5-2.907l0.271-2.441 2.667-1.333-3.333-5c-0-1.889-0.487-3.746-1.413-5.392s-2.261-3.026-3.875-4.007c-1.614-0.981-3.454-1.53-5.342-1.593s-3.76 0.36-5.437 1.23-3.101 2.157-4.136 3.737c-1.035 1.58-1.645 3.4-1.773 5.285s0.233 3.77 1.046 5.475c0.813 1.705 2.051 3.172 3.596 4.26M8 22.661v6.672M8 22.661c1 0.707 2.125 1.249 3.333 1.592"></path>
<path fill="none" stroke="#00a0c1" style="stroke: var(--color1, #00a0c1)" stroke-linejoin="round" stroke-linecap="round" stroke-miterlimit="4" stroke-width="2" d="M15.077 16l-1.948-6.028c-0.067-0.19-0.193-0.354-0.359-0.469s-0.364-0.174-0.565-0.17c-0.202-0.004-0.399 0.055-0.565 0.17s-0.291 0.279-0.359 0.469l-1.948 6.028M18.667 9.333v6.667M10.051 14h4.308"></path>
</symbol>
<symbol id="icon-company-1" viewBox="0 0 32 32">
<path  d="M18.893 18.28l1.867-3.227c0.12-0.2 0.067-0.453-0.107-0.6l-1.973-1.547c0.040-0.293 0.067-0.6 0.067-0.907s-0.027-0.613-0.067-0.92l1.973-1.547c0.173-0.147 0.227-0.4 0.107-0.6l-1.867-3.227c-0.12-0.2-0.36-0.28-0.573-0.2l-2.32 0.933c-0.48-0.373-1-0.68-1.573-0.92l-0.347-2.467c-0.022-0.108-0.081-0.205-0.166-0.275s-0.191-0.11-0.301-0.112h-3.733c-0.227 0-0.427 0.173-0.467 0.4l-0.347 2.467c-0.56 0.24-1.093 0.547-1.573 0.92l-2.32-0.933c-0.213-0.080-0.453 0-0.573 0.2l-1.867 3.227c-0.12 0.2-0.067 0.453 0.107 0.6l1.973 1.547c-0.040 0.293-0.067 0.6-0.067 0.907s0.027 0.613 0.067 0.92l-1.973 1.547c-0.173 0.147-0.227 0.4-0.107 0.6l1.867 3.227c0.12 0.2 0.36 0.28 0.573 0.2l2.32-0.933c0.48 0.373 1 0.68 1.573 0.92l0.347 2.467c0.040 0.213 0.24 0.387 0.467 0.387h3.733c0.227 0 0.427-0.173 0.467-0.4l0.347-2.467c0.56-0.24 1.093-0.547 1.573-0.92l2.32 0.933c0.213 0.080 0.453 0 0.573-0.2zM11.747 14.667c-1.467 0-2.667-1.2-2.667-2.667s1.2-2.667 2.667-2.667c1.467 0 2.667 1.2 2.667 2.667s-1.2 2.667-2.667 2.667zM29.227 24.893l-1.28-0.987c0.027-0.187 0.053-0.387 0.053-0.587s-0.013-0.4-0.053-0.587l1.267-0.987c0.107-0.093 0.147-0.253 0.067-0.387l-1.2-2.067c-0.067-0.133-0.227-0.173-0.373-0.133l-1.48 0.6c-0.307-0.24-0.64-0.44-1.013-0.587l-0.227-1.573c-0.005-0.071-0.037-0.138-0.089-0.187s-0.12-0.078-0.191-0.079h-2.387c-0.147 0-0.28 0.107-0.293 0.253l-0.227 1.573c-0.36 0.16-0.707 0.347-1.013 0.587l-1.48-0.6c-0.068-0.026-0.143-0.026-0.211-0.002s-0.126 0.072-0.162 0.135l-1.2 2.067c-0.067 0.133-0.053 0.293 0.067 0.387l1.267 0.987c-0.055 0.389-0.055 0.784 0 1.173l-1.267 0.987c-0.107 0.093-0.147 0.253-0.067 0.387l1.2 2.067c0.067 0.133 0.227 0.173 0.373 0.133l1.48-0.6c0.307 0.24 0.64 0.44 1.013 0.587l0.227 1.573c0.027 0.147 0.147 0.253 0.293 0.253h2.387c0.147 0 0.28-0.107 0.293-0.253l0.227-1.573c0.36-0.16 0.707-0.347 1-0.587l1.493 0.6c0.133 0.053 0.293 0 0.373-0.133l1.2-2.067c0.080-0.12 0.040-0.28-0.067-0.373zM23.507 25.107c-0.236-0-0.471-0.047-0.689-0.137s-0.417-0.223-0.584-0.391c-0.167-0.167-0.3-0.366-0.39-0.584s-0.137-0.453-0.137-0.689 0.047-0.471 0.137-0.689c0.091-0.218 0.223-0.417 0.391-0.584s0.366-0.3 0.584-0.39c0.218-0.090 0.453-0.137 0.689-0.137 0.478 0 0.935 0.19 1.273 0.528s0.527 0.796 0.527 1.273c-0 0.478-0.19 0.935-0.528 1.273s-0.796 0.527-1.273 0.527z"></path>
</symbol>
<symbol id="icon-company-2" viewBox="0 0 37 32">
<path d="M33.24 6.654h-3.957v-3.957c0-0.7-0.278-1.371-0.773-1.865s-1.166-0.773-1.865-0.773h-15.827c-0.7 0-1.371 0.278-1.865 0.773s-0.773 1.166-0.773 1.865v3.957h-3.957c-1.049 0-2.056 0.417-2.798 1.159s-1.159 1.748-1.159 2.798v18.465c0 0.7 0.278 1.371 0.773 1.865s1.166 0.773 1.865 0.773h31.654c0.7 0 1.371-0.278 1.865-0.773s0.773-1.166 0.773-1.865v-18.465c0-1.049-0.417-2.056-1.159-2.798s-1.749-1.159-2.798-1.159zM10.818 2.697h15.827v3.957h-15.827v-3.957zM34.559 29.076h-31.654v-11.87h10.551v6.595h10.551v-6.595h10.551v11.87zM16.094 17.205h5.276v3.957h-5.276v-3.957zM2.905 14.567v-3.957c0-0.35 0.139-0.685 0.386-0.933s0.583-0.386 0.933-0.386h29.016c0.35 0 0.685 0.139 0.933 0.386s0.386 0.583 0.386 0.933v3.957h-31.654z"></path>
</symbol>
<symbol id="icon-company-3" viewBox="0 0 32 32">
<path  d="M27 24c-0.445 0.002-0.885 0.105-1.285 0.3l-4.3-4.3h-3.415v2h2.586l3.715 3.715c-0.195 0.401-0.297 0.84-0.301 1.285 0 0.593 0.176 1.173 0.506 1.667s0.798 0.878 1.346 1.105c0.548 0.227 1.151 0.287 1.733 0.171s1.116-0.401 1.536-0.821c0.42-0.419 0.705-0.954 0.821-1.536s0.056-1.185-0.171-1.733c-0.227-0.548-0.611-1.017-1.105-1.346s-1.073-0.506-1.667-0.506zM27 28c-0.198 0-0.391-0.059-0.556-0.169s-0.293-0.266-0.368-0.449-0.096-0.384-0.057-0.578c0.039-0.194 0.134-0.372 0.274-0.512s0.318-0.235 0.512-0.274 0.395-0.019 0.578 0.057c0.183 0.076 0.339 0.204 0.449 0.368s0.169 0.358 0.169 0.556c0 0.265-0.105 0.52-0.293 0.707s-0.442 0.293-0.707 0.293zM27 13c-0.618 0.002-1.221 0.195-1.725 0.553s-0.885 0.864-1.091 1.447h-6.184v2h6.184c0.184 0.517 0.507 0.974 0.933 1.32s0.939 0.568 1.483 0.643c0.544 0.074 1.098-0.003 1.601-0.222s0.937-0.573 1.253-1.022c0.316-0.449 0.503-0.976 0.539-1.524s-0.078-1.095-0.331-1.582c-0.253-0.487-0.636-0.895-1.105-1.18s-1.008-0.434-1.557-0.433zM27 17c-0.198 0-0.391-0.059-0.556-0.169s-0.293-0.266-0.368-0.449-0.096-0.384-0.057-0.578c0.039-0.194 0.134-0.372 0.274-0.512s0.318-0.235 0.512-0.274 0.395-0.019 0.578 0.057c0.183 0.076 0.339 0.204 0.449 0.368s0.169 0.358 0.169 0.556c0 0.265-0.105 0.52-0.293 0.707s-0.442 0.293-0.707 0.293zM27 2c-0.795 0.001-1.558 0.317-2.12 0.88s-0.879 1.325-0.88 2.12c0.005 0.479 0.124 0.95 0.348 1.373l-3.752 3.627h-2.596v2h3.404l4.4-4.252c0.409 0.178 0.852 0.263 1.298 0.248s0.882-0.129 1.279-0.333 0.741-0.495 1.011-0.851c0.27-0.355 0.457-0.766 0.547-1.202s0.083-0.888-0.022-1.321c-0.106-0.433-0.306-0.837-0.588-1.183s-0.637-0.624-1.039-0.816c-0.403-0.191-0.843-0.29-1.289-0.29zM27 6c-0.198 0-0.391-0.059-0.556-0.169s-0.293-0.266-0.368-0.449-0.096-0.384-0.057-0.578c0.039-0.194 0.134-0.372 0.274-0.512s0.318-0.235 0.512-0.274 0.395-0.019 0.578 0.057c0.183 0.076 0.339 0.204 0.449 0.368s0.169 0.358 0.169 0.556c0 0.265-0.105 0.52-0.293 0.707s-0.442 0.293-0.707 0.293z"></path>
<path  d="M18 6h2v-2h-2c-0.57 0.002-1.133 0.127-1.65 0.365s-0.978 0.585-1.35 1.017c-0.372-0.432-0.832-0.778-1.35-1.017s-1.080-0.363-1.65-0.365h-1c-2.386 0.003-4.674 0.952-6.361 2.639s-2.636 3.975-2.639 6.361v6c0.003 2.386 0.952 4.674 2.639 6.361s3.975 2.636 6.361 2.639h1c0.57-0.002 1.133-0.127 1.65-0.365s0.978-0.585 1.35-1.017c0.372 0.432 0.832 0.779 1.35 1.017s1.080 0.363 1.65 0.365h2v-2h-2c-0.53 0-1.039-0.211-1.414-0.586s-0.586-0.884-0.586-1.414v-16c0-0.53 0.211-1.039 0.586-1.414s0.884-0.586 1.414-0.586zM12 26h-1c-1.682-0.003-3.306-0.611-4.576-1.712s-2.102-2.623-2.344-4.288h1.92v-2h-2v-4h3c0.795-0.001 1.558-0.317 2.12-0.88s0.879-1.325 0.88-2.12v-2h-2v2c0 0.265-0.105 0.52-0.293 0.707s-0.442 0.293-0.707 0.293h-2.92c0.241-1.664 1.073-3.186 2.344-4.288s2.895-1.709 4.576-1.712h1c0.53 0 1.039 0.211 1.414 0.586s0.586 0.884 0.586 1.414v4h-2v2h2v4h-2c-0.795 0.001-1.558 0.317-2.12 0.88s-0.879 1.325-0.88 2.12v2h2v-2c0-0.265 0.105-0.52 0.293-0.707s0.442-0.293 0.707-0.293h2v4c0 0.53-0.211 1.039-0.586 1.414s-0.884 0.586-1.414 0.586z"></path>
</symbol>
<symbol id="icon-footer-1" viewBox="0 0 32 32">
<path fill="#335bf5" style="fill: var(--color3, #335bf5)" d="M30.72 0h-29.44c-0.708 0-1.28 0.572-1.28 1.28v29.44c0 0.708 0.572 1.28 1.28 1.28h29.44c0.708 0 1.28-0.572 1.28-1.28v-29.44c0-0.708-0.572-1.28-1.28-1.28zM27.024 9.34h-2.556c-2.004 0-2.392 0.952-2.392 2.352v3.084h4.784l-0.624 4.828h-4.16v12.396h-4.988v-12.392h-4.172v-4.832h4.172v-3.56c0-4.132 2.524-6.384 6.212-6.384 1.768 0 3.284 0.132 3.728 0.192v4.316h-0.004z"></path>
</symbol>
<symbol id="icon-footer-2" viewBox="0 0 32 32">
<path fill="#e61f5a" style="fill: var(--color4, #e61f5a)" d="M16.002 7.797c-4.54 0-8.204 3.664-8.204 8.204s3.664 8.204 8.204 8.204c4.54 0 8.204-3.664 8.204-8.204s-3.664-8.204-8.204-8.204zM16.002 21.333c-2.936 0-5.332-2.396-5.332-5.332s2.396-5.332 5.332-5.332c2.936 0 5.332 2.396 5.332 5.332s-2.396 5.332-5.332 5.332zM24.542 5.549c-1.060 0-1.916 0.856-1.916 1.916s0.856 1.916 1.916 1.916c1.060 0 1.916-0.852 1.916-1.916 0-0.252-0.049-0.501-0.145-0.734s-0.237-0.444-0.415-0.622-0.389-0.319-0.622-0.415c-0.233-0.096-0.482-0.146-0.734-0.145zM31.994 16.001c0-2.208 0.020-4.396-0.104-6.6-0.124-2.56-0.708-4.832-2.58-6.704-1.876-1.876-4.144-2.456-6.704-2.58-2.208-0.124-4.396-0.104-6.6-0.104-2.208 0-4.396-0.020-6.6 0.104-2.56 0.124-4.832 0.708-6.704 2.58-1.876 1.876-2.456 4.144-2.58 6.704-0.124 2.208-0.104 4.396-0.104 6.6s-0.020 4.396 0.104 6.6c0.124 2.56 0.708 4.832 2.58 6.704 1.876 1.876 4.144 2.456 6.704 2.58 2.208 0.124 4.396 0.104 6.6 0.104 2.208 0 4.396 0.020 6.6-0.104 2.56-0.124 4.832-0.708 6.704-2.58 1.876-1.876 2.456-4.144 2.58-6.704 0.128-2.204 0.104-4.392 0.104-6.6zM28.474 25.433c-0.292 0.728-0.644 1.272-1.208 1.832-0.564 0.564-1.104 0.916-1.832 1.208-2.104 0.836-7.1 0.648-9.432 0.648s-7.332 0.188-9.436-0.644c-0.728-0.292-1.272-0.644-1.832-1.208-0.564-0.564-0.916-1.104-1.208-1.832-0.832-2.108-0.644-7.104-0.644-9.436s-0.188-7.332 0.644-9.436c0.292-0.728 0.644-1.272 1.208-1.832s1.104-0.916 1.832-1.208c2.104-0.832 7.104-0.644 9.436-0.644s7.332-0.188 9.436 0.644c0.728 0.292 1.272 0.644 1.832 1.208 0.564 0.564 0.916 1.104 1.208 1.832 0.832 2.104 0.644 7.104 0.644 9.436s0.188 7.328-0.648 9.432z"></path>
</symbol>
<symbol id="icon-footer-3" viewBox="0 0 38 32">
<path fill="#21a6df" style="fill: var(--color5, #21a6df)" d="M38.401 3.945c-1.411 0.617-2.946 1.062-4.527 1.235 1.642-0.99 2.871-2.553 3.457-4.397-1.54 0.93-3.228 1.582-4.988 1.927-0.736-0.798-1.625-1.434-2.613-1.867s-2.054-0.656-3.131-0.654c-4.356 0-7.86 3.583-7.86 7.981 0 0.617 0.074 1.235 0.194 1.829-6.523-0.346-12.341-3.509-16.208-8.35-0.705 1.222-1.074 2.612-1.069 4.028 0 2.769 1.388 5.211 3.503 6.648-1.247-0.050-2.465-0.398-3.554-1.015v0.098c0 3.878 2.701 7.092 6.302 7.831-0.676 0.178-1.371 0.269-2.070 0.271-0.512 0-0.996-0.052-1.484-0.122 0.996 3.162 3.895 5.459 7.348 5.534-2.701 2.147-6.085 3.41-9.759 3.41-0.659 0-1.268-0.023-1.899-0.098 3.485 2.269 7.62 3.579 12.073 3.579 14.456 0 22.367-12.154 22.367-22.703 0-0.346 0-0.692-0.023-1.039 1.531-1.137 2.872-2.545 3.941-4.126z"></path>
</symbol>
<symbol id="icon-footer-4" viewBox="0 0 43 32">
<path fill="#e42f08" style="fill: var(--color6, #e42f08)" d="M41.724 5.212c-0.242-0.947-0.718-1.811-1.377-2.505s-1.481-1.193-2.382-1.448c-3.318-0.944-16.653-0.944-16.653-0.944s-13.334 0-16.653 0.944c-0.901 0.255-1.723 0.754-2.382 1.448s-1.135 1.558-1.377 2.505c-0.62 3.559-0.92 7.17-0.898 10.788-0.022 3.618 0.278 7.229 0.898 10.788 0.243 0.948 0.718 1.811 1.377 2.505s1.481 1.193 2.382 1.448c3.318 0.944 16.653 0.944 16.653 0.944s13.334 0 16.653-0.944c0.901-0.255 1.723-0.754 2.382-1.448s1.135-1.558 1.377-2.505c0.62-3.559 0.92-7.17 0.898-10.788 0.022-3.618-0.279-7.229-0.898-10.788zM17.050 22.723v-13.445l11.066 6.722-11.066 6.723z"></path>
</symbol>
<symbol id="icon-partners-1" viewBox="0 0 94 32">
<path fill="#737373" style="fill: var(--color7, #737373)" d="M21.262 29.646l5.636 0.117c-1.942-0.671-3.826-1.489-5.636-2.452v2.335zM29.752 28.872v0.773l-2.855 0.117c5.371 1.824 10.285 2.072 13.934 1.051-2.928 0.029-6.739-0.379-11.080-1.941zM89.919 12.060c2.34 0 4.253-1.883 4.253-4.218s-1.898-3.576-4.253-3.576c-2.34 0-4.252 1.255-4.252 3.576s1.898 4.218 4.252 4.218zM85.652 29.646h8.52v-16.127h-8.52v16.127zM74.807 29.646h8.52v-28.503l-8.519 3.984v24.518zM70.246 12.22c-2.678-2.656-7.416-2.496-7.416-2.496s-4.753-0.161-7.416 2.496c-2.678 2.656-2.472 4.947-2.472 7.677s-0.206 5.006 2.472 7.662c2.678 2.656 7.416 2.496 7.416 2.496s4.753 0.161 7.416-2.496c2.678-2.656 2.472-4.933 2.472-7.662-0.015-2.744 0.191-5.035-2.472-7.677zM64.39 22.713c0 0.525-0.265 1.824-1.574 1.824s-1.575-1.299-1.575-1.824v-5.896c0-1.27 1.074-1.591 1.575-1.591s1.574 0.306 1.574 1.591v5.896zM48.763 12.22c-2.678-2.656-7.416-2.496-7.416-2.496s-4.738-0.161-7.416 2.496c-0.28 0.277-0.544 0.569-0.78 0.876-5.621-4.32-10.668-6.786-15.023-8.917v-3.021l-3.311 1.547c-8.005-3.225-13.096-2.656-14.317 0.015 0 0-3.664 4.787 9.093 16.17v10.756h8.519v-4.174c-0.956-0.613-1.913-1.27-2.854-1.985-2.178-1.635-4.032-3.152-5.65-4.583v-4.524c1.928 2.145 4.488 4.583 7.857 7.341l0.662 0.525v-4.349c0-1.007 0.25-2.656 1.589-2.656s1.56 1.007 1.56 2.189v7.107c2.649 1.781 5.488 3.225 8.49 4.32v-13.704c0-2.729-1.972-5.458-5.974-5.458-2.325-0.015-4.488 1.197-5.665 3.196v-7.925c6.165 3.050 12.345 6.786 14.7 8.508-1.501 2.131-1.368 4.101-1.368 6.378 0 2.729-0.206 5.006 2.472 7.662s7.416 2.496 7.416 2.496 4.753 0.16 7.416-2.496c2.678-2.656 2.457-4.933 2.457-7.662 0-2.7 0.221-4.991-2.457-7.633zM9.594 5.127v9.238c-7.166-7.954-5.724-11.092-5.179-11.544 1.986-1.664 5.518-1.168 9.476 0.306l-4.296 1.999zM42.922 22.713c0 0.525-0.265 1.824-1.574 1.824s-1.575-1.299-1.575-1.824v-5.896c0-1.27 1.074-1.591 1.575-1.591s1.574 0.306 1.574 1.591v5.896z"></path>
</symbol>
<symbol id="icon-partners-2" viewBox="0 0 46 32">
<path fill="#737373" style="fill: var(--color7, #737373)" d="M0.271 0.54h6.84v18.449c0 2.926 1.319 4.667 2.392 5.392-1.117 0.981-4.502 1.848-7.051-0.247-1.495-1.238-2.18-3.297-2.18-5.215v-18.378zM42.993 15.877v-1.945h2.093v-6.789h-2.295c-0.888-4.093-4.502-7.134-8.819-7.134-4.977 0-9.030 4.066-9.030 9.078v15.841c1.407 0.203 3.113-0.027 4.546-1.238 1.503-1.238 2.181-3.288 2.181-5.215v-0.592h3.411v-6.789h-3.411v-2.060c0-3.059 4.59-3.059 4.59 0v6.815c0 5.003 4.044 9.078 9.030 9.078v-6.762c-1.275 0-2.295-1.034-2.295-2.29zM17.117 7.125v9.989c0 1.361-2.093 1.361-2.093 0v-9.989h-6.753v11.73c0 2.104 0.703 4.773 3.957 5.649 3.253 0.866 5.117-0.937 5.117-0.937-0.185 1.185-1.275 2.060-3.069 2.236-1.363 0.141-3.095-0.318-3.957-0.69v6.214c2.207 0.663 4.528 0.866 6.823 0.415 4.141-0.804 6.753-4.278 6.753-8.91v-15.752h-6.779v0.044z"></path>
</symbol>
<symbol id="icon-partners-3" viewBox="0 0 44 32">
<path fill="#737373" style="fill: var(--color7, #737373)" d="M43.52 0.062c-5.494 3.705-6.079 6.393-6.555 7.216-0.456 0.843-0.796 4.168-1.584 5.778-0.796 1.631-3.686 2.917-4.495 3.456-0.796 0.539-1.924 2.633-2.849 4.437-7.351-0.304-11.383 2.682-17.626 6.469 1.999-0.67 2.944-1.154 2.944-1.154 6.406-2.488 9.472-4.721 19.115-3.4 0.075 0 0.129 0.041 0.19 0.055 0.265 0.152 0.36 0.477 0.211 0.746l-3.665 6.621c-0.17 0.325-0.53 0.498-0.891 0.422-8.622-1.645-15.429 1.196-21.685 1.285-4.991 0.076-6.63-2.315-6.63-2.426 0-0.076 0.041-0.117 0.116-0.117 0 0 2.604 0 7.011-1.057 5.005-9.697 9.466-13.090 14.321-13.090 0 0 4.876 0 6.161 4.278 1.55-2.744 1.924-3.4 1.924-3.4 0.36-0.65 2.38-5.336 5.875-9.773 3.502-4.423 6.147-5.522 8.112-6.345z"></path>
</symbol>
<symbol id="icon-partners-4" viewBox="0 0 77 32">
<path fill="#737373" style="fill: var(--color7, #737373)" d="M19.762 2.823l-5.186 1.089-0.024 16.859c0 3.114 2.371 5.126 5.521 5.126 1.749 0 3.030-0.32 3.737-0.698v-4.002c-0.683 0.272-4.036 1.243-4.036-1.859v-7.482h4.036v-4.475h-4.036l-0.012-4.558zM30.433 8.932l-0.323-1.551h-4.599v18.138h5.306v-12.206c1.258-1.634 3.378-1.314 4.060-1.101v-4.83c-0.719-0.249-3.198-0.71-4.443 1.551zM41.488 0.372l-5.342 1.125v4.286l5.342-1.125v-4.286zM5.378 12.721c0-0.817 0.695-1.137 1.809-1.148 1.617 0 3.677 0.485 5.294 1.35v-4.949c-1.761-0.687-3.521-0.959-5.282-0.959-4.312 0-7.186 2.226-7.186 5.943 0 5.825 8.084 4.878 8.084 7.388 0 0.971-0.85 1.291-2.036 1.291-1.761 0-4.036-0.722-5.821-1.681v4.736c1.976 0.841 3.976 1.196 5.809 1.196 4.419 0 7.462-1.871 7.462-5.659 0-6.263-8.132-5.138-8.132-7.506zM76.652 16.663c0-5.387-2.635-9.637-7.689-9.637s-8.132 4.25-8.132 9.602c0 6.334 3.629 9.258 8.803 9.258 2.539 0 4.443-0.568 5.893-1.362v-3.954c-1.449 0.722-3.114 1.16-5.222 1.16-2.072 0-3.892-0.722-4.132-3.185h10.408c0.024-0.272 0.072-1.373 0.072-1.883zM66.124 14.674c0-2.368 1.473-3.362 2.803-3.362 1.305 0 2.695 0.995 2.695 3.362h-5.497zM52.602 7.026c-2.084 0-3.425 0.971-4.168 1.646l-0.275-1.302h-4.683v24.247l5.318-1.113 0.012-5.943c0.767 0.556 1.904 1.326 3.761 1.326 3.809 0 7.282-2.747 7.282-9.424 0.012-6.109-3.509-9.436-7.246-9.436zM51.333 21.529c-1.246 0-1.988-0.45-2.503-0.995l-0.036-7.814c0.551-0.604 1.318-1.042 2.539-1.042 1.94 0 3.282 2.155 3.282 4.901 0.012 2.83-1.305 4.949-3.282 4.949zM36.158 25.519h5.342v-18.138h-5.342v18.138z"></path>
</symbol>
<symbol id="icon-partners-5" viewBox="0 0 53 32">
<path fill="#737373" style="fill: var(--color7, #737373)" d="M15.181 11.677c-0.059 1.848 0.872 2.666 0.895 3.186-0.011 0.106-0.047 0.207-0.106 0.296s-0.138 0.163-0.231 0.215l-1.053 0.731c-0.136 0.095-0.297 0.149-0.463 0.157-0.035-0.002-0.674 0.149-1.685-2.089-0.617 0.764-1.402 1.377-2.295 1.794s-1.87 0.625-2.857 0.609c-1.34 0.073-4.97-0.754-4.783-4.586-0.131-3.123 2.803-5.063 5.836-4.899 0.584 0.002 1.777 0.030 3.866 0.512v-1.274c0.221-2.159-1.21-3.834-3.687-3.582-0.197 0.001-1.596-0.041-3.772 0.825-0.606 0.276-0.683 0.23-0.885 0.23-0.61 0-0.359-1.752-0.242-1.974 0.429-0.522 2.951-1.497 5.426-1.483 1.655-0.145 3.301 0.361 4.582 1.41 0.521 0.578 0.918 1.254 1.168 1.988s0.347 1.511 0.286 2.284l-0.001 5.653zM8.070 14.319c2.668-0.038 3.798-1.629 4.056-2.486 0.202-0.82 0.169-1.339 0.169-2.235-0.796-0.189-1.941-0.396-3.255-0.397-1.247-0.093-3.523 0.459-3.434 2.632-0.102 1.37 0.915 2.562 2.465 2.487zM22.134 16.2c-0.647 0.059-0.948-0.396-1.043-0.846l-4.098-13.433c-0.080-0.227-0.132-0.461-0.158-0.7-0.015-0.099 0.010-0.199 0.069-0.279s0.149-0.134 0.248-0.149c0.020-0.003-0.175 0 1.831 0 0.722-0.072 0.958 0.492 1.033 0.846l2.939 11.49 2.728-11.49c0.044-0.263 0.242-0.903 1.053-0.835h1.412c0.179-0.015 0.914-0.041 1.043 0.846l2.75 11.637 3.034-11.637c0.039-0.178 0.224-0.928 1.043-0.846h1.623c0.070-0.011 0.506-0.066 0.432 0.7-0.035 0.151 0.281-0.87-4.34 13.861-0.095 0.45-0.397 0.905-1.043 0.846h-1.538c-0.9 0.094-1.029-0.788-1.043-0.877l-2.728-11.188-2.697 11.176c-0.013 0.089-0.142 0.971-1.043 0.877l-1.506 0.001zM44.636 16.659c-0.484 0.001-2.791-0.024-4.72-1.003-0.192-0.081-0.356-0.216-0.47-0.389s-0.174-0.376-0.172-0.583v-0.877c0-0.689 0.51-0.563 0.727-0.481 0.826 0.331 1.356 0.583 2.371 0.783 3.016 0.614 4.342-0.188 4.667-0.366 1.082-0.637 1.168-2.095 0.432-2.851-0.862-0.717-1.274-0.744-4.372-1.713-0.382-0.105-3.596-1.11-3.603-4.272-0.050-2.304 2.061-4.583 5.72-4.565 1.043-0.001 3.82 0.337 4.572 1.274 0.111 0.171 0.166 0.371 0.158 0.574v0.825c0 0.362-0.133 0.543-0.401 0.543-0.634-0.070-1.76-0.911-4.045-0.877-0.567-0.029-3.282 0.074-3.16 2.037-0.035 1.547 2.19 2.127 2.444 2.194 3 0.895 4.003 1.043 5.194 2.413 1.41 1.815 0.65 3.941 0.358 4.523-1.57 3.059-5.63 2.81-5.699 2.808zM47.944 25.214c-5.762 4.22-14.127 6.466-21.269 6.466-9.637 0.063-18.949-3.45-26.106-9.85-0.537-0.48-0.063-1.139 0.59-0.773 7.939 4.503 16.928 6.869 26.074 6.863 6.83-0.036 13.586-1.41 19.879-4.043 0.969-0.408 1.791 0.636 0.833 1.336zM50.346 22.498c-0.737-0.94-4.878-0.439-6.732-0.219-0.559 0.063-0.653-0.418-0.147-0.773 3.297-2.298 8.712-1.64 9.334-0.867s-0.169 6.152-3.255 8.722c-0.474 0.397-0.927 0.188-0.717-0.334 0.694-1.734 2.254-5.588 1.516-6.529z"></path>
</symbol>
<symbol id="icon-partners-6" viewBox="0 0 34 32">
<path fill="#737373" style="fill: var(--color7, #737373)" d="M29.776 12.345c-1.050 0-1.974 0.436-2.653 1.118-2.499-1.736-5.865-2.854-9.596-2.973l1.939-8.773 6.173 1.392c0 1.518 1.232 2.756 2.744 2.756 1.54 0 2.779-1.272 2.779-2.791s-1.232-2.791-2.779-2.791c-1.078 0-2.009 0.654-2.471 1.546l-6.817-1.518c-0.343-0.091-0.679 0.155-0.77 0.499l-2.128 9.672c-3.702 0.155-7.034 1.272-9.54 3.009-0.679-0.71-1.638-1.146-2.688-1.146-3.891 0-5.165 5.244-1.603 7.036-0.126 0.555-0.182 1.146-0.182 1.736 0 5.891 6.607 10.663 14.719 10.663 8.147 0 14.754-4.773 14.754-10.663 0-0.59-0.063-1.209-0.217-1.764 3.492-1.8 2.205-7.008-1.666-7.008zM8.016 19.754c0-1.546 1.232-2.791 2.779-2.791 1.512 0 2.744 1.237 2.744 2.791 0 1.518-1.232 2.756-2.744 2.756-1.54 0.007-2.779-1.237-2.779-2.756zM23.015 26.326c-2.548 2.559-9.736 2.559-12.283 0-0.28-0.246-0.28-0.682 0-0.963 0.245-0.246 0.679-0.246 0.924 0 1.946 2.003 8.399 2.039 10.428 0 0.245-0.246 0.679-0.246 0.924 0 0.287 0.281 0.287 0.717 0.007 0.963zM22.959 22.516c-1.512 0-2.744-1.237-2.744-2.756 0-1.546 1.232-2.791 2.744-2.791 1.54 0 2.779 1.237 2.779 2.791-0.007 1.511-1.239 2.756-2.779 2.756z"></path>
</symbol>
<symbol id="icon-servise-1" viewBox="0 0 32 32">
<path fill="#ffa62b" style="fill: var(--color8, #ffa62b)" d="M18.386 8.29c-0.495 0.343-1.053 0.584-1.642 0.709s-1.197 0.131-1.788 0.019c-0.591-0.112-1.154-0.342-1.656-0.674s-0.933-0.761-1.267-1.262c-0.334-0.501-0.566-1.063-0.68-1.654s-0.111-1.199 0.012-1.788 0.362-1.148 0.703-1.644c0.341-0.496 0.778-0.919 1.284-1.245 1-0.66 2.22-0.898 3.395-0.661s2.207 0.929 2.873 1.926 0.91 2.216 0.679 3.391c-0.231 1.176-0.918 2.212-1.91 2.883h-0.002zM17.128 2.637c-0.247-0.178-0.527-0.304-0.823-0.371s-0.604-0.074-0.903-0.020-0.585 0.168-0.839 0.334c-0.254 0.167-0.473 0.383-0.642 0.635s-0.286 0.537-0.343 0.836c-0.057 0.299-0.053 0.606 0.011 0.903s0.187 0.579 0.362 0.827c0.175 0.249 0.398 0.46 0.657 0.62 0.499 0.303 1.096 0.402 1.666 0.276s1.070-0.467 1.394-0.952c0.325-0.485 0.45-1.077 0.35-1.652s-0.419-1.089-0.889-1.435v-0.002zM23.044 2.705c0.654-0.44 1.44-0.638 2.224-0.56s1.516 0.426 2.071 0.986c0.395 0.398 0.687 0.888 0.849 1.425s0.19 1.106 0.081 1.656c-0.109 0.55-0.351 1.066-0.706 1.501s-0.81 0.776-1.327 0.994c-0.621 0.26-1.306 0.328-1.966 0.196s-1.266-0.457-1.74-0.935c-0.356-0.358-0.629-0.791-0.799-1.266s-0.232-0.983-0.183-1.486c0.049-0.503 0.209-0.988 0.468-1.422s0.611-0.805 1.030-1.087l-0.002-0.002zM24.132 6.354c0.213 0.212 0.501 0.331 0.801 0.33 0.149-0 0.296-0.030 0.433-0.087s0.262-0.141 0.367-0.246c0.105-0.105 0.188-0.23 0.245-0.368s0.086-0.285 0.085-0.433-0.030-0.296-0.087-0.433c-0.057-0.137-0.141-0.262-0.246-0.367-0.211-0.212-0.496-0.334-0.796-0.34-0.149-0-0.298 0.029-0.436 0.086s-0.263 0.141-0.369 0.247-0.189 0.232-0.245 0.37c-0.057 0.138-0.085 0.287-0.084 0.436 0.001 0.302 0.119 0.591 0.331 0.807v-0.002zM4.965 26.024h4.103v2.278h-4.103c-0.718-0.006-1.405-0.297-1.909-0.809-0.506-0.514-0.789-1.206-0.789-1.927v-4.103c-0.305-0.010-0.605-0.082-0.882-0.212s-0.524-0.313-0.728-0.541c-0.216-0.219-0.386-0.479-0.499-0.766s-0.167-0.592-0.158-0.9v-4.946c0.007-1.070 0.431-2.092 1.179-2.852 0.746-0.75 1.754-1.179 2.811-1.185h4.171c-0.563 0.67-0.986 1.445-1.247 2.28h-2.924c-0.46 0.013-0.898 0.201-1.224 0.526-0.32 0.329-0.499 0.771-0.499 1.231v5.059h2.267v6.406c-0.005 0.062 0.002 0.124 0.022 0.183s0.051 0.113 0.092 0.159c0.091 0.070 0.202 0.11 0.317 0.113v0.004zM21.511 11.25c-0.371-0.374-0.812-0.672-1.298-0.876s-1.008-0.309-1.535-0.31h-5.621c-1.057 0.008-2.067 0.435-2.811 1.185-0.748 0.759-1.172 1.782-1.179 2.851v7.204c-0.003 0.618 0.232 1.214 0.657 1.664 0.204 0.227 0.451 0.411 0.728 0.54s0.576 0.201 0.881 0.212v5.265c-0.002 0.359 0.067 0.716 0.203 1.048s0.337 0.635 0.59 0.89c0.408 0.381 0.922 0.628 1.473 0.707h4.533c0.638-0.084 1.222-0.4 1.64-0.888s0.642-1.114 0.627-1.757v-5.268c0.305-0.010 0.605-0.082 0.882-0.212s0.524-0.313 0.728-0.541c0.216-0.219 0.386-0.479 0.499-0.765s0.167-0.592 0.159-0.899v-7.203c0.002-1.065-0.413-2.088-1.156-2.852v0.002zM20.401 21.416h-2.267v7.571c-0.002 0.119-0.051 0.233-0.136 0.317-0.039 0.046-0.087 0.082-0.143 0.105s-0.115 0.034-0.175 0.030h-3.649c-0.118-0.006-0.231-0.055-0.314-0.139s-0.133-0.196-0.139-0.314v-7.571h-2.244v-7.317c0-0.46 0.179-0.902 0.499-1.231 0.326-0.325 0.764-0.513 1.224-0.526h5.621c0.343 0.006 0.678 0.112 0.961 0.306s0.505 0.465 0.637 0.783c0.086 0.212 0.129 0.44 0.125 0.669v7.317zM26.77 28.3h-4.103v-2.278h4.080c0.115-0.003 0.226-0.043 0.317-0.113 0.046-0.045 0.081-0.098 0.105-0.158s0.034-0.123 0.031-0.187v-6.406h2.267v-5.059c0.001-0.46-0.178-0.901-0.499-1.231-0.326-0.325-0.764-0.513-1.224-0.526h-2.924c-0.26-0.835-0.684-1.61-1.247-2.28h4.171c1.056 0.010 2.066 0.436 2.811 1.185 0.748 0.759 1.172 1.782 1.179 2.852v4.946c0 0.619-0.233 1.213-0.655 1.662-0.422 0.451-0.997 0.721-1.612 0.755v4.103c0 0.723-0.283 1.414-0.789 1.927-0.504 0.512-1.19 0.803-1.908 0.809zM6.801 2.129c-0.675-0.001-1.334 0.2-1.894 0.576s-0.994 0.911-1.248 1.536c-0.256 0.625-0.323 1.311-0.191 1.973s0.455 1.271 0.93 1.751c0.475 0.479 1.082 0.806 1.744 0.938s1.348 0.065 1.97-0.195c0.623-0.259 1.154-0.698 1.526-1.261s0.568-1.224 0.562-1.898c0-0.907-0.358-1.777-0.997-2.419-0.315-0.317-0.689-0.569-1.101-0.741s-0.855-0.261-1.301-0.261zM6.801 6.689c-0.149 0-0.298-0.029-0.436-0.086s-0.263-0.141-0.369-0.247c-0.105-0.106-0.189-0.232-0.245-0.37s-0.085-0.287-0.084-0.436c0.001-0.301 0.12-0.59 0.332-0.803s0.5-0.335 0.801-0.337c0.3 0.005 0.586 0.127 0.798 0.34s0.332 0.5 0.335 0.8c-0.001 0.301-0.12 0.59-0.332 0.803s-0.5 0.335-0.801 0.337z"></path>
</symbol>
<symbol id="icon-servise-2" viewBox="0 0 39 32">
<path fill="#ffa62b" style="fill: var(--color8, #ffa62b)" d="M36.696 9.064l-2.46 3.7c1.186 2.366 1.767 4.99 1.69 7.635s-0.809 5.231-2.13 7.525h-27.72c-1.718-2.98-2.429-6.434-2.030-9.85s1.89-6.613 4.249-9.115c2.359-2.503 5.462-4.179 8.849-4.779s6.877-0.094 9.953 1.445l3.7-2.46c-3.767-2.416-8.235-3.498-12.69-3.074s-8.639 2.329-11.883 5.412-5.36 7.164-6.011 11.592c-0.65 4.428 0.203 8.945 2.424 12.83 0.349 0.605 0.85 1.107 1.454 1.458s1.288 0.538 1.986 0.542h27.7c0.705 0.003 1.398-0.181 2.009-0.532s1.119-0.858 1.471-1.468c1.843-3.192 2.767-6.832 2.672-10.516s-1.207-7.271-3.212-10.364l-0.020 0.020zM17.116 22.744c0.371 0.372 0.813 0.667 1.298 0.868s1.006 0.305 1.532 0.305 1.046-0.104 1.532-0.305c0.486-0.201 0.927-0.496 1.298-0.868l11.32-16.98-16.98 11.32c-0.372 0.371-0.667 0.813-0.868 1.298s-0.305 1.006-0.305 1.532 0.104 1.046 0.305 1.532c0.201 0.486 0.496 0.927 0.868 1.298z"></path>
</symbol>
<symbol id="icon-support-1" viewBox="0 0 32 32">
<path fill="#00a0c1" style="fill: var(--color1, #00a0c1)" d="M24.858 17.331c-0.156-0.157-0.342-0.281-0.546-0.365s-0.423-0.128-0.644-0.128c-0.221 0-0.44 0.044-0.644 0.128s-0.39 0.209-0.546 0.365l-2.684 2.684c-1.244-0.37-3.566-1.212-5.038-2.684s-2.313-3.793-2.684-5.038l2.684-2.684c0.156-0.156 0.281-0.342 0.365-0.546s0.128-0.423 0.128-0.644c0-0.221-0.044-0.44-0.128-0.644s-0.209-0.39-0.365-0.546l-6.735-6.735c-0.156-0.156-0.342-0.281-0.546-0.365s-0.423-0.128-0.644-0.128c-0.221 0-0.44 0.044-0.644 0.128s-0.39 0.209-0.546 0.365l-4.566 4.566c-0.64 0.64-1 1.519-0.987 2.416 0.039 2.398 0.673 10.725 7.237 17.289s14.891 7.196 17.29 7.237h0.047c0.889 0 1.729-0.35 2.366-0.987l4.566-4.566c0.157-0.156 0.281-0.342 0.365-0.546s0.128-0.423 0.128-0.644c0-0.221-0.044-0.44-0.128-0.644s-0.209-0.39-0.365-0.546l-6.735-6.737zM24.644 28.632c-2.101-0.035-9.291-0.599-14.94-6.25-5.667-5.667-6.216-12.882-6.25-14.941l3.376-3.376 4.354 4.354-2.177 2.177c-0.198 0.198-0.343 0.442-0.423 0.71s-0.092 0.552-0.035 0.826c0.040 0.194 1.029 4.785 3.824 7.58s7.387 3.783 7.58 3.824c0.274 0.059 0.558 0.048 0.826-0.032s0.512-0.226 0.709-0.424l2.179-2.177 4.354 4.354-3.378 3.376z"></path>
</symbol>
<symbol id="icon-support-2" viewBox="0 0 32 32">
<path fill="#fff" style="fill: var(--color2, #fff)" d="M13.111 18.667c3.554 0 6.444-2.791 6.444-6.222s-2.89-6.222-6.444-6.222c-3.554 0-6.444 2.791-6.444 6.222s2.89 6.222 6.444 6.222zM13.111 9.333c1.777 0 3.222 1.395 3.222 3.111s-1.445 3.111-3.222 3.111c-1.777 0-3.222-1.395-3.222-3.111s1.445-3.111 3.222-3.111z"></path>
<path fill="#fff" style="fill: var(--color2, #fff)" d="M12.193 31.262c0.268 0.191 0.589 0.293 0.918 0.293s0.65-0.103 0.918-0.293c0.481-0.339 11.794-8.479 11.748-18.64 0-6.96-5.683-12.622-12.667-12.622s-12.667 5.663-12.667 12.614c-0.046 10.169 11.267 18.309 11.748 18.648zM13.111 3.156c5.239 0 9.5 4.246 9.5 9.475 0.033 7.002-6.948 13.29-9.5 15.352-2.551-2.064-9.533-8.353-9.5-15.36 0-5.221 4.261-9.467 9.5-9.467z"></path>
</symbol>
<symbol id="icon-support-3" viewBox="0 0 32 32">
<path fill="#00a0c1" style="fill: var(--color1, #00a0c1)" d="M30.805 0.524c-0.175-0.182-0.397-0.307-0.639-0.362s-0.494-0.037-0.726 0.051l-28.601 10.816c-0.247 0.097-0.459 0.27-0.609 0.496s-0.23 0.494-0.23 0.768c0 0.274 0.080 0.542 0.23 0.768s0.362 0.399 0.609 0.496l12.48 5.192 4.992 12.98c0.094 0.245 0.255 0.457 0.462 0.608s0.454 0.236 0.708 0.244c0.263-0.006 0.518-0.094 0.731-0.253s0.376-0.382 0.465-0.639l10.4-29.745c0.089-0.239 0.11-0.5 0.062-0.751s-0.164-0.483-0.335-0.669zM19.482 27.443l-3.627-9.464 6.227-6.476-1.833-1.906-6.279 6.53-9.048-3.826 22.79-8.558-8.229 23.701z"></path>
</symbol>
<symbol id="icon-address-1" viewBox="0 0 32 32">
<path fill="#8EC2F2" style="fill: var(--color1, #8EC2F2)" d="M24.858 17.331c-0.156-0.157-0.342-0.281-0.546-0.365s-0.423-0.128-0.644-0.128c-0.221 0-0.44 0.044-0.644 0.128s-0.39 0.209-0.546 0.365l-2.684 2.684c-1.244-0.37-3.566-1.212-5.038-2.684s-2.313-3.793-2.684-5.038l2.684-2.684c0.156-0.156 0.281-0.342 0.365-0.546s0.128-0.423 0.128-0.644c0-0.221-0.044-0.44-0.128-0.644s-0.209-0.39-0.365-0.546l-6.735-6.735c-0.156-0.156-0.342-0.281-0.546-0.365s-0.423-0.128-0.644-0.128c-0.221 0-0.44 0.044-0.644 0.128s-0.39 0.209-0.546 0.365l-4.566 4.566c-0.64 0.64-1 1.519-0.987 2.416 0.039 2.398 0.673 10.725 7.237 17.289s14.891 7.196 17.29 7.237h0.047c0.889 0 1.729-0.35 2.366-0.987l4.566-4.566c0.157-0.156 0.281-0.342 0.365-0.546s0.128-0.423 0.128-0.644c0-0.221-0.044-0.44-0.128-0.644s-0.209-0.39-0.365-0.546l-6.735-6.737zM24.644 28.632c-2.101-0.035-9.291-0.599-14.94-6.25-5.667-5.667-6.216-12.882-6.25-14.941l3.376-3.376 4.354 4.354-2.177 2.177c-0.198 0.198-0.343 0.442-0.423 0.71s-0.092 0.552-0.035 0.826c0.040 0.194 1.029 4.785 3.824 7.58s7.387 3.783 7.58 3.824c0.274 0.059 0.558 0.048 0.826-0.032s0.512-0.226 0.709-0.424l2.179-2.177 4.354 4.354-3.378 3.376z"></path>
</symbol>
<symbol id="icon-address-2" viewBox="0 0 32 32">
<path fill="#8EC2F2" style="fill: var(--color2, #8EC2F2)" d="M13.111 18.667c3.554 0 6.444-2.791 6.444-6.222s-2.89-6.222-6.444-6.222c-3.554 0-6.444 2.791-6.444 6.222s2.89 6.222 6.444 6.222zM13.111 9.333c1.777 0 3.222 1.395 3.222 3.111s-1.445 3.111-3.222 3.111c-1.777 0-3.222-1.395-3.222-3.111s1.445-3.111 3.222-3.111z"></path>
<path fill="#8EC2F2" style="fill: var(--color2, #8EC2F2)" d="M12.193 31.262c0.268 0.191 0.589 0.293 0.918 0.293s0.65-0.103 0.918-0.293c0.481-0.339 11.794-8.479 11.748-18.64 0-6.96-5.683-12.622-12.667-12.622s-12.667 5.663-12.667 12.614c-0.046 10.169 11.267 18.309 11.748 18.648zM13.111 3.156c5.239 0 9.5 4.246 9.5 9.475 0.033 7.002-6.948 13.29-9.5 15.352-2.551-2.064-9.533-8.353-9.5-15.36 0-5.221 4.261-9.467 9.5-9.467z"></path>
</symbol>
<symbol id="icon-address-3" viewBox="0 0 32 32">
<path fill="#8EC2F2" style="fill: var(--color1, #8EC2F2)" d="M30.805 0.524c-0.175-0.182-0.397-0.307-0.639-0.362s-0.494-0.037-0.726 0.051l-28.601 10.816c-0.247 0.097-0.459 0.27-0.609 0.496s-0.23 0.494-0.23 0.768c0 0.274 0.080 0.542 0.23 0.768s0.362 0.399 0.609 0.496l12.48 5.192 4.992 12.98c0.094 0.245 0.255 0.457 0.462 0.608s0.454 0.236 0.708 0.244c0.263-0.006 0.518-0.094 0.731-0.253s0.376-0.382 0.465-0.639l10.4-29.745c0.089-0.239 0.11-0.5 0.062-0.751s-0.164-0.483-0.335-0.669zM19.482 27.443l-3.627-9.464 6.227-6.476-1.833-1.906-6.279 6.53-9.048-3.826 22.79-8.558-8.229 23.701z"></path>
</symbol>

<symbol id="serba-logo" viewBox="0 0 134 31">
<path d="M45.2035 24.7783C44.1635 24.5806 43.1667 24.2014 42.2585 23.6581V20.794C43.2051 21.3379 44.2172 21.7592 45.2704 22.0478C46.3466 22.3608 47.461 22.5235 48.5818 22.5316C49.7898 22.5316 50.6694 22.3883 51.2272 22.0956C51.4915 21.9708 51.7124 21.7698 51.8612 21.5185C52.01 21.2672 52.0801 20.9772 52.0622 20.6858C52.0824 20.2579 51.9465 19.8373 51.6798 19.5019C51.3146 19.1306 50.8669 18.8504 50.373 18.684C49.4692 18.3445 48.5479 18.0534 47.6129 17.812C46.5363 17.5254 45.4885 17.1397 44.4832 16.66C43.7809 16.3281 43.1802 15.8151 42.743 15.1738C42.3252 14.4671 42.1215 13.6546 42.1565 12.8347C42.1214 12.1417 42.2721 11.4519 42.5932 10.8365C42.9142 10.2212 43.3939 9.70246 43.9828 9.33404C45.196 8.54055 46.83 8.14488 48.8846 8.147C49.9404 8.14503 50.9939 8.24521 52.0303 8.44615C52.8949 8.5928 53.7307 8.8753 54.5068 9.28313V12.0932C53.7577 11.6762 52.9512 11.3717 52.1132 11.1894C51.1639 10.9733 50.1929 10.8665 49.2193 10.8712C48.0368 10.8712 47.1317 11.0144 46.5102 11.304C46.2132 11.4309 45.9634 11.6473 45.7954 11.9228C45.6274 12.1984 45.5497 12.5194 45.5732 12.8411C45.5548 13.2574 45.6987 13.6646 45.9748 13.9772C46.3348 14.324 46.7715 14.5813 47.2496 14.7283C47.8382 14.9404 48.7805 15.213 50.0766 15.5461C52.1079 16.1062 53.5187 16.7639 54.3091 17.5192C55.0996 18.2745 55.4958 19.3216 55.4979 20.6603C55.5129 21.3102 55.3647 21.9536 55.0669 22.5317C54.7691 23.1098 54.3311 23.6042 53.7928 23.97C52.654 24.7911 50.969 25.2027 48.738 25.2048C47.5478 25.1911 46.3627 25.0481 45.2035 24.7783Z" fill="#252B42"/>
<path d="M61.05 22.974C59.3629 21.4889 58.5205 19.4002 58.5226 16.7079C58.5226 14.0792 59.2758 11.9968 60.7823 10.4607C62.2887 8.9247 64.4358 8.15561 67.2235 8.15349C68.8595 8.10343 70.4817 8.4657 71.9405 9.20687C73.1867 9.85992 74.2073 10.8723 74.8695 12.1124C75.5446 13.4176 75.8841 14.8699 75.8575 16.3387V18.0095H61.7352C61.8478 19.5285 62.4853 20.6594 63.6475 21.4019C64.8098 22.1445 66.4033 22.5179 68.4282 22.5221C69.4715 22.52 70.5125 22.4252 71.5389 22.2389C72.4874 22.0772 73.4181 21.8246 74.3181 21.4847V24.1866C73.4045 24.5275 72.4567 24.7687 71.4911 24.9058C70.3456 25.0919 69.1872 25.1866 68.0267 25.189C65.0584 25.1933 62.7328 24.4549 61.05 22.974ZM72.6767 15.6386C72.6321 14.1237 72.136 12.9483 71.1883 12.1124C70.2407 11.2765 68.8968 10.8596 67.1566 10.8617C65.4568 10.8617 64.1405 11.2956 63.2077 12.1633C62.7364 12.6106 62.3624 13.1499 62.109 13.7478C61.8557 14.3458 61.7284 14.9894 61.7352 15.6386H72.6767Z" fill="#252B42"/>
<path d="M79.5354 8.65614H82.8182V11.5203C83.5125 10.5218 84.5004 9.76338 85.6452 9.34991C87.0009 8.85853 88.4357 8.62117 89.8777 8.64977V11.288C88.3623 11.2489 86.856 11.5343 85.4603 12.125C84.8795 12.371 84.3543 12.7314 83.9162 13.1847C83.4781 13.638 83.1361 14.1749 82.9106 14.7632V24.686H79.5354V8.65614Z" fill="#252B42"/>
<path d="M99.0982 24.5047C97.9777 24.0044 96.9786 23.2684 96.1692 22.347V24.6861H92.8896V0H96.2712V10.7916C97.0351 9.90366 98.0138 9.22554 99.1142 8.82168C100.311 8.36944 101.582 8.14284 102.862 8.15337C104.377 8.13096 105.872 8.50511 107.197 9.23858C108.463 9.94871 109.505 10.9967 110.209 12.2651C110.924 13.6416 111.297 15.1697 111.297 16.7205C111.297 18.2712 110.924 19.7993 110.209 21.1759C109.507 22.4315 108.462 23.4623 107.197 24.1482C105.866 24.8628 104.373 25.2254 102.862 25.2016C101.573 25.2275 100.292 24.9904 99.0982 24.5047ZM105.055 21.7964C105.93 21.3243 106.65 20.6106 107.13 19.7406C107.624 18.8035 107.882 17.7604 107.882 16.7014C107.882 15.6423 107.624 14.5992 107.13 13.6621C106.646 12.7901 105.928 12.0712 105.055 11.5872C104.147 11.0932 103.128 10.8411 102.094 10.8552C100.793 10.8364 99.5179 11.2211 98.4448 11.9564C97.4006 12.6551 96.6322 13.6946 96.2712 14.8969V18.5058C96.6656 19.6912 97.4337 20.7173 98.4608 21.4304C99.5286 22.1623 100.799 22.5418 102.094 22.5157C103.126 22.5328 104.145 22.2875 105.055 21.8028V21.7964Z" fill="#252B42"/>
<path d="M115.231 23.7091C114.059 22.7161 113.473 21.3731 113.475 19.6801C113.475 17.9022 114.038 16.5231 115.165 15.5429C116.291 14.5628 117.892 14.078 119.968 14.0886C122.175 14.0886 124.049 14.5341 125.59 15.4252V14.5882C125.59 13.3153 125.204 12.3743 124.433 11.7654C123.661 11.1565 122.451 10.851 120.803 10.8489C119.839 10.8454 118.878 10.9403 117.934 11.1321C117.077 11.2986 116.24 11.5612 115.442 11.915V9.1781C116.276 8.81732 117.154 8.56388 118.052 8.42387C119.08 8.2395 120.122 8.14473 121.166 8.14062C123.822 8.14063 125.791 8.72513 127.072 9.89414C128.353 11.0632 128.99 12.6841 128.984 14.7569V24.6797H125.797V22.8753C125.117 23.6263 124.276 24.2147 123.336 24.597C122.232 25.0155 121.056 25.2144 119.875 25.1825C117.95 25.191 116.402 24.6998 115.231 23.7091ZM123.649 21.9874C124.465 21.6143 125.144 20.9956 125.59 20.2179V18.0443C124.145 17.1105 122.457 16.6223 120.736 16.6409C119.442 16.6409 118.477 16.8912 117.842 17.3919C117.204 17.8948 116.886 18.6649 116.886 19.6801C116.886 21.6447 118.168 22.6249 120.732 22.6207C121.739 22.6354 122.736 22.4187 123.646 21.9874H123.649Z" fill="#252B42"/>
<path d="M20.283 26.9169V26.9901C20.2815 26.9974 20.2815 27.005 20.283 27.0124V27.0633C20.2845 27.0909 20.2845 27.1185 20.283 27.146C20.2695 27.2287 20.2514 27.3105 20.2288 27.3911C20.2288 27.4293 20.2097 27.4675 20.197 27.5088C20.1842 27.5502 20.1747 27.5852 20.1619 27.6266L20.1237 27.7412C20.1237 27.7794 20.095 27.8175 20.079 27.8557C20.0631 27.8939 20.0504 27.9321 20.0344 27.9703C20.0185 28.0085 20.0121 28.0244 19.9994 28.053C19.9611 28.1358 19.9197 28.2217 19.8751 28.3044C19.8304 28.3872 19.7954 28.4445 19.7508 28.5113L19.6998 28.594C19.6201 28.7182 19.5308 28.8455 19.4416 28.9632C19.2332 29.2341 19.0053 29.4894 18.7596 29.727C18.2158 30.2122 17.5779 30.5805 16.8855 30.809C16.4801 30.931 16.0595 30.9953 15.6362 31C14.6869 30.9996 13.7666 30.6738 13.0291 30.0771L0.780851 17.847C0.297977 17.1779 0.038147 16.374 0.038147 15.5493C0.038147 14.7245 0.297977 13.9207 0.780851 13.2516L4.14329 9.86548C3.99544 10.311 3.92012 10.7773 3.92019 11.2466C3.92019 11.3198 3.92019 11.3867 3.92019 11.4471C3.95119 12.1103 4.13322 12.7576 4.45243 13.34C4.77165 13.9223 5.21965 14.4243 5.76237 14.8078L16.1716 25.2016C16.4354 25.5605 16.7524 25.877 17.1118 26.1404C17.8519 26.6801 18.7451 26.97 19.6615 26.9678C19.7571 26.9678 19.8528 26.9678 19.942 26.9678C20.0312 26.9678 20.1683 26.9328 20.283 26.9169Z" fill="#00A0C1"/>
<path d="M24.592 22.2229C24.5923 22.7069 24.5037 23.1869 24.3307 23.639C24.2254 23.9071 24.0919 24.1631 23.9323 24.4028C23.6442 24.8337 23.2738 25.2036 22.8423 25.4912L20.4838 27.8462C20.4838 27.8048 20.5125 27.7635 20.5252 27.7189V27.6871C20.5252 27.6489 20.5507 27.6075 20.5603 27.5662C20.5603 27.5248 20.5826 27.4802 20.5953 27.4357C20.5939 27.4294 20.5939 27.4229 20.5953 27.4166L20.624 27.2829C20.624 27.2479 20.624 27.2097 20.6463 27.1747C20.6479 27.1589 20.6479 27.1429 20.6463 27.127C20.6479 27.1015 20.6479 27.076 20.6463 27.0506C20.6654 26.9315 20.6782 26.8114 20.6846 26.691V26.4332V26.3473C20.6761 25.6701 20.5108 25.004 20.2018 24.4011C19.8927 23.7983 19.4482 23.275 18.903 22.8721L7.11052 11.0971C6.78026 10.5567 6.58549 9.94475 6.54277 9.31314C6.50004 8.68153 6.61062 8.04896 6.86511 7.46915C7.00547 7.14714 7.18996 6.84618 7.4133 6.57489L10.5558 3.43701L10.524 3.53249C10.524 3.5484 10.524 3.56113 10.524 3.57386C10.524 3.58659 10.5016 3.64706 10.4921 3.68206L10.473 3.76163C10.4411 3.88219 10.4155 4.00435 10.3965 4.1276V4.2008C10.3965 4.22944 10.3965 4.2549 10.3965 4.28036C10.3965 4.30582 10.3965 4.309 10.3965 4.32173C10.3965 4.33446 10.3965 4.4172 10.3805 4.46175V4.6177V4.89457V4.93276C10.3988 5.75013 10.651 6.54522 11.1072 7.2241C11.421 7.69224 11.8225 8.09533 12.2896 8.41114L23.9419 20.0493C24.3687 20.6938 24.5949 21.4501 24.592 22.2229Z" fill="#00A0C1"/>
<path d="M31.234 15.5494C31.2362 16.3745 30.9762 17.179 30.4914 17.8471L27.1513 21.1823C27.2864 20.755 27.3552 20.3096 27.3553 19.8616C27.3553 19.7884 27.3553 19.7216 27.3553 19.6643C27.3173 18.8174 27.0302 18.0005 26.5298 17.3156C26.2676 16.952 25.9516 16.6301 25.5928 16.3609L15.0433 5.83027C14.8617 5.60749 14.6577 5.40382 14.4346 5.22243C13.6613 4.59313 12.6944 4.24921 11.6968 4.24861H11.4387C11.2179 4.26243 10.9985 4.29221 10.7821 4.33771V4.25178C10.7821 4.25178 10.7821 4.22633 10.7821 4.21678L10.8012 4.08948C10.8012 4.05766 10.8012 4.01947 10.8235 3.98446C10.822 3.97497 10.822 3.96531 10.8235 3.95582C10.8235 3.92399 10.8235 3.89217 10.8458 3.86035C10.8682 3.82853 10.8713 3.75214 10.8873 3.69804L10.9128 3.61212C10.951 3.49437 10.9956 3.37662 11.0434 3.26524L11.0913 3.15385L11.1454 3.04565L11.1932 2.95017L11.2793 2.79742L11.3207 2.73058C11.3654 2.6542 11.4163 2.58101 11.4673 2.50782L12.3597 1.61673L12.4299 1.59128H12.4617L12.5191 1.52127C13.18 0.725028 14.129 0.221515 15.1598 0.120204C16.1905 0.0188933 17.2196 0.327972 18.0233 0.98025L30.7719 13.7099C31.0749 14.2759 31.2336 14.9077 31.234 15.5494Z" fill="#00A0C1"/>
</symbol>

<symbol id="serba-icon" viewBox="0 0 95 95">
<path d="M61.9966 82.4423V82.6674C61.992 82.6899 61.992 82.7132 61.9966 82.736V82.8925C62.0011 82.9774 62.0011 83.0623 61.9966 83.1469C61.9552 83.4012 61.8998 83.6528 61.8306 83.9007C61.8306 84.0182 61.7721 84.1357 61.7332 84.2627C61.694 84.39 61.6649 84.4977 61.6257 84.625L61.5087 84.9774C61.5087 85.0949 61.4208 85.2121 61.3718 85.3296C61.3231 85.4471 61.2843 85.5646 61.2353 85.682C61.1866 85.7995 61.167 85.8484 61.1281 85.9364C61.0108 86.191 60.884 86.4552 60.7474 86.7096C60.6105 86.9642 60.5034 87.1405 60.3668 87.3459L60.2106 87.6003C59.9665 87.9822 59.6931 88.3738 59.4199 88.7357C58.7817 89.5689 58.0838 90.3541 57.3314 91.0848C55.6661 92.5771 53.7126 93.7098 51.5923 94.4126C50.3508 94.7878 49.0628 94.9855 47.7665 95C44.8594 94.9988 42.0411 93.9968 39.7827 92.1616L2.27441 54.5475C0.795687 52.4896 0 50.0172 0 47.4808C0 44.9441 0.795687 42.472 2.27441 40.4141L12.5713 30C12.1186 31.3702 11.8879 32.8043 11.8881 34.2477C11.8881 34.4728 11.8881 34.6786 11.8881 34.8643C11.9831 36.904 12.5405 38.8948 13.518 40.686C14.4956 42.4769 15.8675 44.0208 17.5295 45.2003L49.4061 77.1668C50.2139 78.2706 51.1847 79.244 52.2853 80.0541C54.5517 81.714 57.287 82.6056 60.0933 82.5988C60.3861 82.5988 60.6791 82.5988 60.9523 82.5988C61.2255 82.5988 61.6453 82.4912 61.9966 82.4423Z" fill="#00A0C1"/>
<path d="M74.9999 67.7218C75.0008 69.2089 74.731 70.6838 74.2041 72.0729C73.8834 72.8967 73.4768 73.6833 72.9907 74.4198C72.1132 75.7437 70.9851 76.8803 69.6709 77.764L62.4876 85C62.4876 84.8728 62.575 84.7459 62.6136 84.6089V84.5111C62.6136 84.3938 62.6913 84.2666 62.7206 84.1397C62.7206 84.0125 62.7885 83.8754 62.8271 83.7387C62.8229 83.7193 62.8229 83.6994 62.8271 83.68L62.9146 83.2692C62.9146 83.1617 62.9146 83.0443 62.9825 82.9367C62.9873 82.8882 62.9873 82.839 62.9825 82.7902C62.9873 82.7118 62.9873 82.6335 62.9825 82.5554C63.0406 82.1895 63.0796 81.8205 63.0991 81.4505V80.6584V80.3945C63.0732 78.3137 62.5698 76.267 61.6287 74.4145C60.6872 72.5624 59.3334 70.9545 57.6729 69.7165L21.7565 33.5365C20.7506 31.8761 20.1574 29.9958 20.0273 28.0551C19.8971 26.1144 20.2339 24.1707 21.009 22.3892C21.4365 21.3998 21.9984 20.4751 22.6787 19.6415L32.2498 10L32.1529 10.2934C32.1529 10.3423 32.1529 10.3814 32.1529 10.4205C32.1529 10.4596 32.0847 10.6454 32.0558 10.7529L31.9976 10.9974C31.9004 11.3679 31.8225 11.7432 31.7646 12.1219V12.3468C31.7646 12.4348 31.7646 12.5131 31.7646 12.5913C31.7646 12.6695 31.7646 12.6793 31.7646 12.7184C31.7646 12.7575 31.7646 13.0117 31.7159 13.1486V13.6278V14.4785V14.5959C31.7716 17.1073 32.5397 19.5503 33.9292 21.6363C34.8849 23.0747 36.1078 24.3132 37.5304 25.2836L73.0199 61.0431C74.3198 63.0234 75.0088 65.3473 74.9999 67.7218Z" fill="#00A0C1"/>
<path d="M95 47.6318C95.0066 50.1759 94.2184 52.6564 92.7488 54.7164L82.6233 65C83.0328 63.6825 83.2414 62.3092 83.2417 60.9278C83.2417 60.7021 83.2417 60.4962 83.2417 60.3195C83.1265 57.7082 82.2561 55.1894 80.7392 53.0776C79.9443 51.9565 78.9864 50.964 77.8987 50.1339L45.9178 17.6643C45.3673 16.9774 44.7489 16.3495 44.0726 15.7902C41.7283 13.8498 38.7971 12.7894 35.7729 12.7875H34.9905C34.3211 12.8302 33.656 12.922 33 13.0623V12.7973C33 12.7973 33 12.7188 33 12.6894L33.0579 12.2969C33.0579 12.1988 33.0579 12.081 33.1255 11.9731C33.121 11.9438 33.121 11.914 33.1255 11.8848C33.1255 11.7866 33.1255 11.6885 33.1931 11.5904C33.261 11.4923 33.2704 11.2568 33.3189 11.0899L33.3962 10.825C33.512 10.462 33.6472 10.0989 33.7921 9.75547L33.9373 9.41202L34.1013 9.0784L34.2463 8.784L34.5073 8.31302L34.6328 8.10693C34.7683 7.87142 34.9226 7.64575 35.0772 7.42008L37.7825 4.67254L37.9953 4.59407H38.0917L38.2657 4.37821C40.2692 1.92311 43.1461 0.370609 46.271 0.0582316C49.3956 -0.254144 52.5153 0.698853 54.9517 2.71005L93.5991 41.96C94.5176 43.7052 94.9987 45.6532 95 47.6318Z" fill="#00A0C1"/>
</symbol>
</defs>
</svg>
